<mxfile host="Electron" modified="2023-09-05T13:03:25.479Z" agent="Mozilla/5.0 (Windows NT 10.0; Win64; x64) AppleWebKit/537.36 (KHTML, like Gecko) draw.io/21.6.8 Chrome/114.0.5735.289 Electron/25.5.0 Safari/537.36" etag="7Sqc2s1sxkkRi7bWoFOS" version="21.6.8" type="device">
  <diagram name="第 1 页" id="3FiX5PJXpTPc_dtf2-BZ">
    <mxGraphModel dx="2390" dy="1473" grid="1" gridSize="10" guides="1" tooltips="1" connect="1" arrows="0" fold="1" page="1" pageScale="1" pageWidth="827" pageHeight="1169" math="0" shadow="0">
      <root>
        <mxCell id="0" />
        <mxCell id="1" parent="0" />
        <mxCell id="FUcUz3EOzdGqYNXG0XWD-40" value="" style="rounded=1;whiteSpace=wrap;html=1;fillColor=#f5f5f5;strokeColor=#666666;fontColor=#333333;" vertex="1" parent="1">
          <mxGeometry x="340" y="20" width="350" height="430" as="geometry" />
        </mxCell>
        <mxCell id="FUcUz3EOzdGqYNXG0XWD-1" value="&lt;b&gt;&lt;font style=&quot;font-size: 20px;&quot;&gt;Redis&lt;/font&gt;&lt;/b&gt;" style="rounded=1;whiteSpace=wrap;html=1;fillColor=#e51400;fontColor=#ffffff;strokeColor=#B20000;" vertex="1" parent="1">
          <mxGeometry x="10" y="617.5" width="110" height="80" as="geometry" />
        </mxCell>
        <mxCell id="FUcUz3EOzdGqYNXG0XWD-2" value="&lt;font style=&quot;font-size: 16px;&quot;&gt;Data Structure&lt;/font&gt;" style="rounded=1;whiteSpace=wrap;html=1;fillColor=#f9f7ed;strokeColor=#36393d;" vertex="1" parent="1">
          <mxGeometry x="190" y="200" width="114" height="50" as="geometry" />
        </mxCell>
        <mxCell id="FUcUz3EOzdGqYNXG0XWD-5" value="&lt;font style=&quot;font-size: 16px;&quot;&gt;Structure&lt;/font&gt;" style="rounded=1;whiteSpace=wrap;html=1;fillColor=#cce5ff;strokeColor=#36393d;" vertex="1" parent="1">
          <mxGeometry x="190" y="500" width="114" height="50" as="geometry" />
        </mxCell>
        <mxCell id="FUcUz3EOzdGqYNXG0XWD-6" value="&lt;font style=&quot;font-size: 16px;&quot;&gt;Appliction&lt;/font&gt;" style="rounded=1;whiteSpace=wrap;html=1;fillColor=#ffff88;strokeColor=#36393d;" vertex="1" parent="1">
          <mxGeometry x="190" y="690" width="114" height="50" as="geometry" />
        </mxCell>
        <mxCell id="FUcUz3EOzdGqYNXG0XWD-7" value="&lt;font style=&quot;font-size: 16px;&quot;&gt;Persistence&lt;/font&gt;" style="rounded=1;whiteSpace=wrap;html=1;fillColor=#cdeb8b;strokeColor=#36393d;" vertex="1" parent="1">
          <mxGeometry x="190" y="890" width="114" height="50" as="geometry" />
        </mxCell>
        <mxCell id="FUcUz3EOzdGqYNXG0XWD-8" value="&lt;font style=&quot;font-size: 16px;&quot;&gt;Cluster&lt;/font&gt;" style="rounded=1;whiteSpace=wrap;html=1;fillColor=#ffcccc;strokeColor=#36393d;" vertex="1" parent="1">
          <mxGeometry x="190" y="1055" width="114" height="50" as="geometry" />
        </mxCell>
        <mxCell id="FUcUz3EOzdGqYNXG0XWD-10" value="&lt;font style=&quot;font-size: 14px;&quot;&gt;String&lt;/font&gt;" style="rounded=1;whiteSpace=wrap;html=1;fillColor=#fff2cc;strokeColor=#d6b656;gradientColor=#ffd966;" vertex="1" parent="1">
          <mxGeometry x="371" y="60" width="80" height="20" as="geometry" />
        </mxCell>
        <mxCell id="FUcUz3EOzdGqYNXG0XWD-11" value="&lt;font style=&quot;font-size: 14px;&quot;&gt;Set&lt;/font&gt;" style="rounded=1;whiteSpace=wrap;html=1;fillColor=#f8cecc;strokeColor=#b85450;gradientColor=#ea6b66;" vertex="1" parent="1">
          <mxGeometry x="370" y="180" width="80" height="20" as="geometry" />
        </mxCell>
        <mxCell id="FUcUz3EOzdGqYNXG0XWD-12" value="&lt;font style=&quot;font-size: 14px;&quot;&gt;Hash&lt;/font&gt;" style="rounded=1;whiteSpace=wrap;html=1;fillColor=#e6d0de;strokeColor=#996185;gradientColor=#d5739d;" vertex="1" parent="1">
          <mxGeometry x="371" y="140" width="80" height="20" as="geometry" />
        </mxCell>
        <mxCell id="FUcUz3EOzdGqYNXG0XWD-13" value="&lt;font style=&quot;font-size: 14px;&quot;&gt;ZSet&lt;/font&gt;" style="rounded=1;whiteSpace=wrap;html=1;fillColor=#d5e8d4;gradientColor=#97d077;strokeColor=#82b366;" vertex="1" parent="1">
          <mxGeometry x="370" y="220" width="80" height="20" as="geometry" />
        </mxCell>
        <mxCell id="FUcUz3EOzdGqYNXG0XWD-14" value="&lt;span style=&quot;font-size: 14px;&quot;&gt;List&lt;/span&gt;" style="rounded=1;whiteSpace=wrap;html=1;fillColor=#dae8fc;strokeColor=#6c8ebf;gradientColor=#7ea6e0;" vertex="1" parent="1">
          <mxGeometry x="370" y="100" width="80" height="20" as="geometry" />
        </mxCell>
        <mxCell id="FUcUz3EOzdGqYNXG0XWD-16" value="&lt;span style=&quot;font-size: 14px;&quot;&gt;SDS&lt;/span&gt;" style="rounded=1;whiteSpace=wrap;html=1;fillColor=#fff2cc;strokeColor=#d6b656;gradientColor=#ffd966;" vertex="1" parent="1">
          <mxGeometry x="570" y="40" width="80" height="20" as="geometry" />
        </mxCell>
        <mxCell id="FUcUz3EOzdGqYNXG0XWD-17" value="&lt;span style=&quot;font-size: 14px;&quot;&gt;QuickList&lt;/span&gt;" style="rounded=1;whiteSpace=wrap;html=1;fillColor=#dae8fc;strokeColor=#6c8ebf;gradientColor=#7ea6e0;" vertex="1" parent="1">
          <mxGeometry x="570" y="100" width="80" height="20" as="geometry" />
        </mxCell>
        <mxCell id="FUcUz3EOzdGqYNXG0XWD-18" value="&lt;span style=&quot;font-size: 14px;&quot;&gt;ListPack&lt;/span&gt;" style="rounded=1;whiteSpace=wrap;html=1;fillColor=#d80073;fontColor=#ffffff;strokeColor=#A50040;gradientColor=default;" vertex="1" parent="1">
          <mxGeometry x="570" y="160" width="80" height="20" as="geometry" />
        </mxCell>
        <mxCell id="FUcUz3EOzdGqYNXG0XWD-19" value="&lt;span style=&quot;font-size: 14px;&quot;&gt;HashTable&lt;/span&gt;" style="rounded=1;whiteSpace=wrap;html=1;fillColor=#d80073;fontColor=#ffffff;strokeColor=#A50040;gradientColor=default;" vertex="1" parent="1">
          <mxGeometry x="570" y="200" width="80" height="20" as="geometry" />
        </mxCell>
        <mxCell id="FUcUz3EOzdGqYNXG0XWD-20" value="&lt;span style=&quot;font-size: 14px;&quot;&gt;INTSet&lt;/span&gt;" style="rounded=1;whiteSpace=wrap;html=1;fillColor=#f8cecc;strokeColor=#b85450;gradientColor=#ea6b66;" vertex="1" parent="1">
          <mxGeometry x="570" y="240" width="80" height="20" as="geometry" />
        </mxCell>
        <mxCell id="FUcUz3EOzdGqYNXG0XWD-21" value="&lt;span style=&quot;font-size: 14px;&quot;&gt;SkipList&lt;/span&gt;" style="rounded=1;whiteSpace=wrap;html=1;fillColor=#d5e8d4;gradientColor=#97d077;strokeColor=#82b366;" vertex="1" parent="1">
          <mxGeometry x="570" y="280" width="80" height="20" as="geometry" />
        </mxCell>
        <mxCell id="FUcUz3EOzdGqYNXG0XWD-23" value="&lt;span style=&quot;font-size: 14px;&quot;&gt;BitMap&lt;/span&gt;" style="rounded=1;whiteSpace=wrap;html=1;fillColor=#bac8d3;strokeColor=#23445d;" vertex="1" parent="1">
          <mxGeometry x="370" y="285" width="80" height="20" as="geometry" />
        </mxCell>
        <mxCell id="FUcUz3EOzdGqYNXG0XWD-24" value="&lt;span style=&quot;font-size: 14px;&quot;&gt;HyperlogLog&lt;/span&gt;" style="rounded=1;whiteSpace=wrap;html=1;fillColor=#bac8d3;strokeColor=#23445d;" vertex="1" parent="1">
          <mxGeometry x="370" y="320" width="80" height="20" as="geometry" />
        </mxCell>
        <mxCell id="FUcUz3EOzdGqYNXG0XWD-25" value="&lt;span style=&quot;font-size: 14px;&quot;&gt;GEO&lt;/span&gt;" style="rounded=1;whiteSpace=wrap;html=1;fillColor=#bac8d3;strokeColor=#23445d;" vertex="1" parent="1">
          <mxGeometry x="370" y="360" width="80" height="20" as="geometry" />
        </mxCell>
        <mxCell id="FUcUz3EOzdGqYNXG0XWD-26" value="&lt;span style=&quot;font-size: 14px;&quot;&gt;Stream&lt;/span&gt;" style="rounded=1;whiteSpace=wrap;html=1;fillColor=#bac8d3;strokeColor=#23445d;" vertex="1" parent="1">
          <mxGeometry x="370" y="400" width="80" height="20" as="geometry" />
        </mxCell>
        <mxCell id="FUcUz3EOzdGqYNXG0XWD-29" value="" style="endArrow=none;html=1;entryX=1;entryY=0.5;entryDx=0;entryDy=0;exitX=0;exitY=0.5;exitDx=0;exitDy=0;strokeWidth=1;rounded=0;fillColor=#fff2cc;strokeColor=#d6b656;gradientColor=#ffd966;" edge="1" parent="1" source="FUcUz3EOzdGqYNXG0XWD-16" target="FUcUz3EOzdGqYNXG0XWD-10">
          <mxGeometry width="50" height="50" relative="1" as="geometry">
            <mxPoint x="460" y="225" as="sourcePoint" />
            <mxPoint x="510" y="175" as="targetPoint" />
          </mxGeometry>
        </mxCell>
        <mxCell id="FUcUz3EOzdGqYNXG0XWD-30" value="&lt;span style=&quot;font-size: 14px;&quot;&gt;ZipList&amp;nbsp;&lt;/span&gt;&lt;font style=&quot;font-size: 6px;&quot;&gt;before ver5.0&lt;/font&gt;" style="rounded=1;whiteSpace=wrap;html=1;fillColor=#a20025;fontColor=#ffffff;strokeColor=#6F0000;gradientColor=default;" vertex="1" parent="1">
          <mxGeometry x="570" y="140" width="110" height="20" as="geometry" />
        </mxCell>
        <mxCell id="FUcUz3EOzdGqYNXG0XWD-31" value="&lt;span style=&quot;font-size: 14px;&quot;&gt;LinkedList &lt;/span&gt;&lt;font style=&quot;font-size: 6px;&quot;&gt;before ver3.2&lt;/font&gt;" style="rounded=1;whiteSpace=wrap;html=1;fillColor=#dae8fc;strokeColor=#6c8ebf;gradientColor=#7ea6e0;" vertex="1" parent="1">
          <mxGeometry x="570" y="80" width="110" height="20" as="geometry" />
        </mxCell>
        <mxCell id="FUcUz3EOzdGqYNXG0XWD-32" value="" style="endArrow=none;html=1;rounded=0;exitX=1;exitY=0.5;exitDx=0;exitDy=0;entryX=0;entryY=0;entryDx=0;entryDy=0;fillColor=#dae8fc;strokeColor=#6c8ebf;gradientColor=#7ea6e0;" edge="1" parent="1" source="FUcUz3EOzdGqYNXG0XWD-14" target="FUcUz3EOzdGqYNXG0XWD-17">
          <mxGeometry width="50" height="50" relative="1" as="geometry">
            <mxPoint x="680" y="165" as="sourcePoint" />
            <mxPoint x="730" y="115" as="targetPoint" />
          </mxGeometry>
        </mxCell>
        <mxCell id="FUcUz3EOzdGqYNXG0XWD-33" value="" style="endArrow=none;html=1;rounded=0;exitX=1;exitY=0.5;exitDx=0;exitDy=0;entryX=0;entryY=0.5;entryDx=0;entryDy=0;fillColor=#e6d0de;strokeColor=#996185;gradientColor=#d5739d;" edge="1" parent="1" source="FUcUz3EOzdGqYNXG0XWD-12" target="FUcUz3EOzdGqYNXG0XWD-19">
          <mxGeometry width="50" height="50" relative="1" as="geometry">
            <mxPoint x="460" y="120" as="sourcePoint" />
            <mxPoint x="580" y="110" as="targetPoint" />
          </mxGeometry>
        </mxCell>
        <mxCell id="FUcUz3EOzdGqYNXG0XWD-34" value="" style="endArrow=none;html=1;rounded=0;exitX=1;exitY=0.5;exitDx=0;exitDy=0;entryX=0;entryY=0;entryDx=0;entryDy=0;fillColor=#e6d0de;strokeColor=#996185;gradientColor=#d5739d;" edge="1" parent="1" source="FUcUz3EOzdGqYNXG0XWD-12" target="FUcUz3EOzdGqYNXG0XWD-18">
          <mxGeometry width="50" height="50" relative="1" as="geometry">
            <mxPoint x="461" y="160" as="sourcePoint" />
            <mxPoint x="580" y="220" as="targetPoint" />
          </mxGeometry>
        </mxCell>
        <mxCell id="FUcUz3EOzdGqYNXG0XWD-35" value="" style="endArrow=none;html=1;rounded=0;exitX=1;exitY=0.5;exitDx=0;exitDy=0;entryX=0;entryY=0.5;entryDx=0;entryDy=0;fillColor=#dae8fc;strokeColor=#6c8ebf;gradientColor=#7ea6e0;" edge="1" parent="1" source="FUcUz3EOzdGqYNXG0XWD-14" target="FUcUz3EOzdGqYNXG0XWD-30">
          <mxGeometry width="50" height="50" relative="1" as="geometry">
            <mxPoint x="460" y="120" as="sourcePoint" />
            <mxPoint x="580" y="110" as="targetPoint" />
          </mxGeometry>
        </mxCell>
        <mxCell id="FUcUz3EOzdGqYNXG0XWD-36" value="" style="endArrow=none;html=1;rounded=0;exitX=1;exitY=0.5;exitDx=0;exitDy=0;entryX=0;entryY=0.5;entryDx=0;entryDy=0;fillColor=#f8cecc;strokeColor=#b85450;gradientColor=#ea6b66;" edge="1" parent="1" source="FUcUz3EOzdGqYNXG0XWD-11" target="FUcUz3EOzdGqYNXG0XWD-20">
          <mxGeometry width="50" height="50" relative="1" as="geometry">
            <mxPoint x="680" y="165" as="sourcePoint" />
            <mxPoint x="730" y="115" as="targetPoint" />
          </mxGeometry>
        </mxCell>
        <mxCell id="FUcUz3EOzdGqYNXG0XWD-37" value="" style="endArrow=none;html=1;rounded=0;exitX=1;exitY=0.5;exitDx=0;exitDy=0;entryX=0;entryY=0.5;entryDx=0;entryDy=0;fillColor=#d5e8d4;gradientColor=#97d077;strokeColor=#82b366;" edge="1" parent="1" source="FUcUz3EOzdGqYNXG0XWD-13" target="FUcUz3EOzdGqYNXG0XWD-21">
          <mxGeometry width="50" height="50" relative="1" as="geometry">
            <mxPoint x="460" y="200" as="sourcePoint" />
            <mxPoint x="580" y="260" as="targetPoint" />
          </mxGeometry>
        </mxCell>
        <mxCell id="FUcUz3EOzdGqYNXG0XWD-38" value="" style="endArrow=none;html=1;rounded=0;exitX=1;exitY=0.5;exitDx=0;exitDy=0;entryX=0;entryY=0;entryDx=0;entryDy=0;fillColor=#d5e8d4;gradientColor=#97d077;strokeColor=#82b366;" edge="1" parent="1" source="FUcUz3EOzdGqYNXG0XWD-13" target="FUcUz3EOzdGqYNXG0XWD-18">
          <mxGeometry width="50" height="50" relative="1" as="geometry">
            <mxPoint x="470" y="210" as="sourcePoint" />
            <mxPoint x="590" y="270" as="targetPoint" />
          </mxGeometry>
        </mxCell>
        <mxCell id="FUcUz3EOzdGqYNXG0XWD-39" value="" style="endArrow=none;html=1;rounded=0;exitX=1;exitY=0.5;exitDx=0;exitDy=0;entryX=0;entryY=0.5;entryDx=0;entryDy=0;fillColor=#f8cecc;strokeColor=#b85450;gradientColor=#ea6b66;" edge="1" parent="1" source="FUcUz3EOzdGqYNXG0XWD-11" target="FUcUz3EOzdGqYNXG0XWD-19">
          <mxGeometry width="50" height="50" relative="1" as="geometry">
            <mxPoint x="460" y="200" as="sourcePoint" />
            <mxPoint x="580" y="260" as="targetPoint" />
          </mxGeometry>
        </mxCell>
        <mxCell id="FUcUz3EOzdGqYNXG0XWD-41" value="&lt;font style=&quot;font-size: 18px;&quot;&gt;Thread&lt;/font&gt;" style="rounded=1;whiteSpace=wrap;html=1;fillColor=#cce5ff;strokeColor=#36393d;" vertex="1" parent="1">
          <mxGeometry x="370" y="480" width="150" height="35" as="geometry" />
        </mxCell>
        <mxCell id="FUcUz3EOzdGqYNXG0XWD-42" value="&lt;font style=&quot;font-size: 18px;&quot;&gt;Cache&amp;nbsp;Algorithms&lt;/font&gt;" style="rounded=1;whiteSpace=wrap;html=1;fillColor=#cce5ff;strokeColor=#36393d;" vertex="1" parent="1">
          <mxGeometry x="370" y="530" width="150" height="35" as="geometry" />
        </mxCell>
        <mxCell id="FUcUz3EOzdGqYNXG0XWD-43" value="&lt;font style=&quot;font-size: 18px;&quot;&gt;Message Queue&lt;/font&gt;" style="rounded=1;whiteSpace=wrap;html=1;fillColor=#ffff88;strokeColor=#36393d;" vertex="1" parent="1">
          <mxGeometry x="366" y="790" width="150" height="35" as="geometry" />
        </mxCell>
        <mxCell id="FUcUz3EOzdGqYNXG0XWD-44" value="&lt;font style=&quot;font-size: 18px;&quot;&gt;SecKill&lt;/font&gt;" style="rounded=1;whiteSpace=wrap;html=1;fillColor=#ffff88;strokeColor=#36393d;" vertex="1" parent="1">
          <mxGeometry x="366" y="740" width="150" height="35" as="geometry" />
        </mxCell>
        <mxCell id="FUcUz3EOzdGqYNXG0XWD-45" value="&lt;font style=&quot;font-size: 18px;&quot;&gt;Cache&lt;/font&gt;" style="rounded=1;whiteSpace=wrap;html=1;fillColor=#ffff88;strokeColor=#36393d;" vertex="1" parent="1">
          <mxGeometry x="365" y="590" width="150" height="35" as="geometry" />
        </mxCell>
        <mxCell id="FUcUz3EOzdGqYNXG0XWD-46" value="&lt;span style=&quot;font-size: 18px;&quot;&gt;Transaction&lt;/span&gt;" style="rounded=1;whiteSpace=wrap;html=1;fillColor=#ffff88;strokeColor=#36393d;" vertex="1" parent="1">
          <mxGeometry x="366" y="690" width="150" height="35" as="geometry" />
        </mxCell>
        <mxCell id="FUcUz3EOzdGqYNXG0XWD-47" value="&lt;span style=&quot;font-size: 18px;&quot;&gt;Distributed Locking&lt;/span&gt;" style="rounded=1;whiteSpace=wrap;html=1;fillColor=#ffff88;strokeColor=#36393d;" vertex="1" parent="1">
          <mxGeometry x="360" y="640" width="160" height="35" as="geometry" />
        </mxCell>
        <mxCell id="FUcUz3EOzdGqYNXG0XWD-48" value="&lt;font style=&quot;font-size: 18px;&quot;&gt;RDB&lt;/font&gt;" style="rounded=1;whiteSpace=wrap;html=1;fillColor=#cdeb8b;strokeColor=#36393d;" vertex="1" parent="1">
          <mxGeometry x="365" y="870" width="150" height="35" as="geometry" />
        </mxCell>
        <mxCell id="FUcUz3EOzdGqYNXG0XWD-49" value="&lt;font style=&quot;font-size: 18px;&quot;&gt;AOF&lt;/font&gt;" style="rounded=1;whiteSpace=wrap;html=1;fillColor=#cdeb8b;strokeColor=#36393d;" vertex="1" parent="1">
          <mxGeometry x="365" y="930" width="150" height="35" as="geometry" />
        </mxCell>
        <mxCell id="FUcUz3EOzdGqYNXG0XWD-50" value="&lt;font style=&quot;font-size: 18px;&quot;&gt;Master-Slave&lt;/font&gt;" style="rounded=1;whiteSpace=wrap;html=1;fillColor=#ffcccc;strokeColor=#36393d;" vertex="1" parent="1">
          <mxGeometry x="365" y="1020" width="150" height="35" as="geometry" />
        </mxCell>
        <mxCell id="FUcUz3EOzdGqYNXG0XWD-51" value="&lt;font style=&quot;font-size: 18px;&quot;&gt;Sentry&lt;/font&gt;" style="rounded=1;whiteSpace=wrap;html=1;fillColor=#ffcccc;strokeColor=#36393d;" vertex="1" parent="1">
          <mxGeometry x="365" y="1060" width="150" height="35" as="geometry" />
        </mxCell>
        <mxCell id="FUcUz3EOzdGqYNXG0XWD-52" value="&lt;font style=&quot;font-size: 18px;&quot;&gt;Cluster&lt;/font&gt;" style="rounded=1;whiteSpace=wrap;html=1;fillColor=#ffcccc;strokeColor=#36393d;" vertex="1" parent="1">
          <mxGeometry x="365" y="1100" width="150" height="35" as="geometry" />
        </mxCell>
        <mxCell id="FUcUz3EOzdGqYNXG0XWD-53" value="" style="shape=curlyBracket;whiteSpace=wrap;html=1;rounded=1;labelPosition=left;verticalLabelPosition=middle;align=right;verticalAlign=middle;strokeWidth=3;" vertex="1" parent="1">
          <mxGeometry x="120" y="200" width="50" height="920" as="geometry" />
        </mxCell>
      </root>
    </mxGraphModel>
  </diagram>
</mxfile>
